<svg xmlns="http://www.w3.org/2000/svg" xmlns:xlink="http://www.w3.org/1999/xlink" width="1366" zoomAndPan="magnify" viewBox="0 0 1024.5 576" height="768" preserveAspectRatio="xMidYMid meet" version="1.0"><defs><clipPath id="1fb16a38eb"><path d="M 0 0.140625 L 1024 0.140625 L 1024 575.859375 L 0 575.859375 Z M 0 0.140625 " clip-rule="nonzero"/></clipPath><clipPath id="798134f74d"><path d="M 10 0.140625 L 1012 0.140625 L 1012 559 L 10 559 Z M 10 0.140625 " clip-rule="nonzero"/></clipPath><clipPath id="bce7674840"><path d="M 93 0.140625 L 1024 0.140625 L 1024 575.859375 L 93 575.859375 Z M 93 0.140625 " clip-rule="nonzero"/></clipPath><clipPath id="f4bcc4d8bc"><path d="M 429 0.140625 L 1024 0.140625 L 1024 575.859375 L 429 575.859375 Z M 429 0.140625 " clip-rule="nonzero"/></clipPath><clipPath id="ced1b6b9af"><path d="M 429.8125 594.328125 L 1024.023438 0.117188 L 1618.230469 594.328125 L 1024.023438 1188.535156 Z M 429.8125 594.328125 " clip-rule="nonzero"/></clipPath><clipPath id="fe7878ae86"><path d="M 429.8125 594.328125 L 1024.023438 0.117188 L 1618.230469 594.328125 L 1024.023438 1188.535156 Z M 429.8125 594.328125 " clip-rule="nonzero"/></clipPath><clipPath id="18b63fbf38"><path d="M 665 0.140625 L 1024 0.140625 L 1024 472 L 665 472 Z M 665 0.140625 " clip-rule="nonzero"/></clipPath><clipPath id="9c9c36d7d4"><path d="M 0 0.140625 L 595 0.140625 L 595 575.859375 L 0 575.859375 Z M 0 0.140625 " clip-rule="nonzero"/></clipPath><clipPath id="4eb4917706"><path d="M -594.1875 -15.945312 L 0.0234375 -610.15625 L 594.230469 -15.945312 L 0.0234375 578.265625 Z M -594.1875 -15.945312 " clip-rule="nonzero"/></clipPath><clipPath id="2c445c8a07"><path d="M -288.335938 287.785156 L 304.8125 -305.363281 L 594.230469 -15.945312 L 1.082031 577.207031 Z M -288.335938 287.785156 " clip-rule="nonzero"/></clipPath><clipPath id="5ff85f96e3"><path d="M -594.175781 -15.933594 L 0.0351562 -610.140625 L 594.246094 -15.933594 L 0.0351562 578.277344 Z M -594.175781 -15.933594 " clip-rule="nonzero"/></clipPath><clipPath id="13b3c6642f"><path d="M 747 0.140625 L 1024 0.140625 L 1024 366 L 747 366 Z M 747 0.140625 " clip-rule="nonzero"/></clipPath><clipPath id="9c92af5168"><path d="M 785 0.140625 L 1024 0.140625 L 1024 303 L 785 303 Z M 785 0.140625 " clip-rule="nonzero"/></clipPath><clipPath id="5922b7bfed"><path d="M 0 146 L 210 146 L 210 575.859375 L 0 575.859375 Z M 0 146 " clip-rule="nonzero"/></clipPath></defs><g clip-path="url(#1fb16a38eb)"><path fill="#ffffff" d="M 0 0.140625 L 1024 0.140625 L 1024 575.859375 L 0 575.859375 Z M 0 0.140625 " fill-opacity="1" fill-rule="nonzero"/><path fill="#fbbb08" d="M 0 0.140625 L 1024 0.140625 L 1024 575.859375 L 0 575.859375 Z M 0 0.140625 " fill-opacity="1" fill-rule="nonzero"/></g><g clip-path="url(#798134f74d)"><path stroke-linecap="round" transform="matrix(0.532581, -0.52755, 0.52755, 0.532581, 281.50723, 249.118653)" fill="none" stroke-linejoin="miter" d="M 36.502464 36.499639 L 752.79086 36.497872 " stroke="#fefefe" stroke-width="73" stroke-opacity="1" stroke-miterlimit="4"/></g><g clip-path="url(#bce7674840)"><path stroke-linecap="round" transform="matrix(0.532581, -0.52755, 0.52755, 0.532581, 364.751551, 629.682662)" fill="none" stroke-linejoin="miter" d="M 36.498192 36.499908 L 752.793957 36.498106 " stroke="#000000" stroke-width="73" stroke-opacity="1" stroke-miterlimit="4"/></g><g clip-path="url(#f4bcc4d8bc)"><g clip-path="url(#ced1b6b9af)"><g clip-path="url(#fe7878ae86)"><path fill="#fefefe" d="M 429.8125 594.328125 L 1023.917969 0.222656 L 1618.023438 594.328125 L 1023.917969 1188.433594 Z M 429.8125 594.328125 " fill-opacity="1" fill-rule="nonzero"/></g></g></g><g clip-path="url(#18b63fbf38)"><path stroke-linecap="butt" transform="matrix(0.530071, -0.530071, 0.530071, 0.530071, 693.72067, 440.066011)" fill="none" stroke-linejoin="miter" d="M -0.00218361 3.498975 L 789.293065 3.498975 " stroke="#a4781f" stroke-width="7" stroke-opacity="1" stroke-miterlimit="4"/></g><g clip-path="url(#9c9c36d7d4)"><g clip-path="url(#4eb4917706)"><g clip-path="url(#2c445c8a07)"><g clip-path="url(#5ff85f96e3)"><path fill="#000000" d="M -594.175781 -15.933594 L -0.046875 -610.0625 L 594.085938 -15.933594 L -0.046875 578.199219 Z M -594.175781 -15.933594 " fill-opacity="1" fill-rule="nonzero"/></g></g></g></g><path stroke-linecap="butt" transform="matrix(0.532581, -0.52755, 0.52755, 0.532581, -154.456707, 541.55378)" fill="none" stroke-linejoin="miter" d="M 0.000713397 3.500999 L 789.290127 3.499177 " stroke="#bcb29e" stroke-width="7" stroke-opacity="1" stroke-miterlimit="4"/><g clip-path="url(#13b3c6642f)"><path stroke-linecap="butt" transform="matrix(0.530071, -0.530071, 0.530071, 0.530071, 775.14751, 334.36198)" fill="none" stroke-linejoin="miter" d="M -0.000352717 3.502515 L 789.291211 3.49883 " stroke="#a4781f" stroke-width="7" stroke-opacity="1" stroke-miterlimit="4"/></g><g clip-path="url(#9c92af5168)"><path stroke-linecap="butt" transform="matrix(0.530071, -0.530071, 0.530071, 0.530071, 812.95313, 270.54794)" fill="none" stroke-linejoin="miter" d="M 0.00100026 3.499403 L 789.292564 3.503088 " stroke="#a4781f" stroke-width="7" stroke-opacity="1" stroke-miterlimit="4"/></g><path stroke-linecap="butt" transform="matrix(0.532581, -0.52755, 0.52755, 0.532581, -192.959043, 514.556589)" fill="none" stroke-linejoin="miter" d="M -0.00180532 3.500565 L 789.29131 3.50241 " stroke="#bcb29e" stroke-width="7" stroke-opacity="1" stroke-miterlimit="4"/><g clip-path="url(#5922b7bfed)"><path stroke-linecap="butt" transform="matrix(0.532581, -0.52755, 0.52755, 0.532581, -242.614336, 590.598778)" fill="none" stroke-linejoin="miter" d="M 0.00022336 3.496704 L 789.293339 3.498549 " stroke="#bcb29e" stroke-width="7" stroke-opacity="1" stroke-miterlimit="4"/></g></svg>