<?xml version="1.0" standalone="no"?>
<!DOCTYPE svg PUBLIC "-//W3C//DTD SVG 20010904//EN"
 "http://www.w3.org/TR/2001/REC-SVG-20010904/DTD/svg10.dtd">
<svg version="1.0" xmlns="http://www.w3.org/2000/svg"
 width="500.000000pt" height="500.000000pt" viewBox="0 0 500.000000 500.000000"
 preserveAspectRatio="xMidYMid meet">
<metadata>
Created by potrace 1.16, written by Peter Selinger 2001-2019
</metadata>
<g transform="translate(0.000000,500.000000) scale(0.100000,-0.100000)"
fill="#000000" stroke="none">
<path d="M1995 3648 c71 -25 68 -13 62 -311 -4 -163 -11 -276 -18 -288 -6 -11
-25 -27 -42 -34 -30 -13 -25 -14 68 -13 55 0 88 3 74 5 -15 2 -35 13 -45 24
-20 22 -21 36 -16 344 2 160 4 186 15 170 7 -11 55 -110 107 -220 51 -110 96
-203 100 -208 3 -4 15 8 25 27 l19 35 -68 143 c-37 79 -89 186 -114 238 l-47
95 -75 2 c-64 2 -71 0 -45 -9z"/>
<path d="M2621 3629 c-33 -54 -184 -409 -177 -416 8 -9 4 -18 87 175 83 194
86 195 88 25 l1 -92 31 -16 c21 -11 28 -20 21 -28 -63 -82 -502 -720 -498
-725 7 -7 -13 -35 178 238 230 329 227 325 371 528 71 101 126 186 122 190 -3
4 -9 2 -13 -4 -4 -5 -36 -52 -72 -104 l-65 -94 -7 40 c-4 21 -7 91 -7 155 -1
127 0 130 59 147 32 9 30 10 -33 11 -65 1 -68 0 -86 -30z"/>
<path d="M2760 3146 c0 -3 20 -14 45 -25 75 -33 113 -69 147 -139 31 -63 33
-73 33 -177 0 -103 -2 -113 -30 -164 -55 -100 -147 -147 -272 -139 -102 6
-103 8 -103 247 l0 196 -30 -50 c-29 -49 -30 -52 -30 -195 0 -172 -7 -193 -65
-200 -22 -3 36 -8 128 -12 186 -7 243 1 323 48 106 62 171 187 162 308 -10
124 -71 210 -183 261 -69 32 -125 50 -125 41z"/>
<path d="M2240 1977 c-51 -26 -61 -95 -18 -134 30 -27 95 -24 119 6 34 42 24
103 -22 126 -34 18 -47 18 -79 2z m93 -29 c37 -43 6 -111 -51 -111 -42 0 -72
28 -72 67 0 39 9 52 40 65 32 12 60 5 83 -21z"/>
<path d="M2480 1904 l0 -86 57 4 c43 4 61 10 75 28 18 22 23 64 12 95 -9 24
-58 45 -104 45 l-40 0 0 -86z m100 61 c61 -31 47 -112 -22 -129 -59 -15 -68
-6 -68 67 0 35 3 67 7 70 11 12 53 8 83 -8z"/>
</g>
</svg>
