<svg version="1.1" id="Layer_1" xmlns="http://www.w3.org/2000/svg" xmlns:xlink="http://www.w3.org/1999/xlink" x="0px" y="0px"
	 width="100%" viewBox="0 0 496 496" enable-background="new 0 0 496 496" xml:space="preserve">
<path fill="#000000" opacity="1.000000" stroke="none" 
	d="
M280.563049,189.473969 
	C278.669769,188.584167 276.577301,188.614807 275.881927,186.402893 
	C278.440979,184.782654 280.818634,186.209259 283.079895,186.809204 
	C298.521240,190.905991 311.270630,202.588776 308.278870,225.198685 
	C306.290344,240.226685 291.662109,253.024857 275.323792,253.263458 
	C265.830414,253.402130 256.331055,253.148911 246.834717,253.042969 
	C245.562347,253.028793 244.121796,253.395721 243.238815,251.960800 
	C243.322968,251.655777 243.345963,251.138901 243.493225,251.100662 
	C251.739502,248.959396 251.740204,248.963409 251.736038,240.368011 
	C251.733200,234.535629 252.046509,228.681610 251.648010,222.876419 
	C251.169418,215.904587 254.800720,210.976074 258.589783,205.892487 
	C260.957214,207.025330 260.095306,208.930237 260.107910,210.402176 
	C260.190674,220.066452 260.130219,229.731827 260.154205,239.396759 
	C260.176239,248.276703 263.111969,251.118515 271.907837,250.543732 
	C292.463379,249.200500 300.406860,234.160995 299.395630,217.590942 
	C298.634857,205.124252 293.323914,194.796432 280.563049,189.473969 
z"/>
<path fill="#000000" opacity="1.000000" stroke="none" 
	d="
M230.851440,224.913208 
	C242.346176,208.537201 253.625107,192.447556 264.956635,176.394989 
	C266.508972,174.195877 267.216461,172.331573 264.397430,170.601974 
	C262.780029,169.609619 262.714264,167.901093 262.605072,166.189545 
	C262.239502,160.460495 261.785889,154.737061 261.285919,147.919418 
	C256.895294,158.004623 252.928070,167.113724 248.965485,176.224838 
	C248.567200,177.140579 248.259155,178.100983 247.798676,178.982941 
	C247.165604,180.195450 246.352234,181.511826 244.747116,180.633209 
	C243.509644,179.955856 243.773972,178.638779 244.257050,177.511108 
	C246.354828,172.614304 248.434616,167.709122 250.597778,162.841141 
	C253.910324,155.386551 257.474609,148.037201 260.562012,140.491760 
	C262.323212,136.187500 264.858032,134.029358 269.631409,134.627197 
	C272.525146,134.989609 275.530212,134.244263 278.302795,135.088547 
	C278.508972,136.233734 278.046417,136.670654 277.365173,136.863022 
	C269.320648,139.134720 269.090973,139.267807 269.388367,147.774826 
	C269.606842,154.022995 270.223816,160.257217 270.710266,167.166733 
	C276.820221,161.694366 279.094543,153.720566 285.773102,148.874252 
	C286.232086,153.828766 222.519089,244.550858 217.593979,245.634399 
	C220.889648,238.196045 226.421921,232.092010 230.851440,224.913208 
z"/>
<path fill="#000000" opacity="1.000000" stroke="none" 
	d="
M205.980347,150.305344 
	C206.714462,141.644470 206.714462,141.644470 198.638809,135.661530 
	C208.269547,132.309738 213.233047,134.291122 217.266235,142.846436 
	C222.724808,154.425369 228.314651,165.942413 233.837845,177.490936 
	C236.819672,183.725677 236.566437,185.025192 230.761444,191.103134 
	C224.203369,177.447281 217.780151,164.072266 211.356949,150.697266 
	C211.046738,150.734299 210.736542,150.771332 210.426331,150.808380 
	C210.064896,157.310562 209.591141,163.809052 209.376572,170.316086 
	C209.195663,175.802002 209.314941,181.297836 209.302750,186.789291 
	C209.280685,196.728073 209.281128,196.728073 219.036835,201.087524 
	C210.939209,202.356064 204.020767,202.549133 196.607712,200.631836 
	C206.671021,197.838394 205.653290,190.059525 205.682648,182.715057 
	C205.725235,172.065613 205.871109,161.416595 205.980347,150.305344 
z"/>
<path fill="#000000" opacity="1.000000" stroke="none" 
	d="
M201.894730,309.704529 
	C204.106155,307.034912 204.415756,303.215454 208.745422,301.717072 
	C209.287552,307.925415 210.255600,313.624542 207.924469,320.488251 
	C205.454102,316.167206 207.439728,312.504639 205.868408,309.186401 
	C204.057800,311.843475 202.312881,314.404144 200.507080,317.054169 
	C196.840958,315.793091 197.016190,311.540680 194.012268,310.054474 
	C192.657303,312.969116 194.335663,316.525543 191.694153,319.236786 
	C190.272888,313.614502 190.634430,307.999725 191.003311,301.927277 
	C195.332245,302.864471 195.691498,306.490265 197.476562,308.809204 
	C198.588791,310.254059 199.333618,313.063324 201.894730,309.704529 
z"/>
<path fill="#000000" opacity="1.000000" stroke="none" 
	d="
M264.693756,313.315674 
	C261.977692,318.611786 254.015152,321.972778 249.855774,318.934753 
	C245.712112,315.908264 248.639526,310.622467 248.002075,306.389893 
	C247.738098,304.637207 247.779907,302.713593 250.020447,301.840973 
	C258.542511,298.522003 265.831604,303.964478 264.693756,313.315674 
M261.090363,307.575104 
	C260.286865,306.772430 259.619019,305.689148 258.653198,305.222412 
	C256.243225,304.057739 253.568573,303.055389 251.662338,305.969666 
	C250.287292,308.071869 251.173782,315.629639 252.788895,316.150818 
	C256.055817,317.204987 259.007233,316.525238 261.033630,313.508179 
	C262.126831,311.880554 261.979919,310.066071 261.090363,307.575104 
z"/>
<path fill="#000000" opacity="1.000000" stroke="none" 
	d="
M237.096786,306.208984 
	C239.546570,314.410889 236.156113,319.352478 228.650253,319.367096 
	C224.293976,319.375580 221.121475,317.547455 219.981796,313.427460 
	C218.924591,309.605713 219.340332,305.549438 223.011154,303.177612 
	C226.715561,300.784058 230.866791,300.839661 234.711563,303.210846 
	C235.638672,303.782623 236.200012,304.947449 237.096786,306.208984 
M231.493393,305.017242 
	C227.984741,303.476562 225.381500,304.744781 223.385101,307.701508 
	C221.709274,310.183472 222.397385,312.440948 224.266800,314.465149 
	C226.779724,317.186127 230.877701,317.511017 233.081238,314.835938 
	C235.786819,311.551422 235.777863,308.185425 231.493393,305.017242 
z"/>
<path fill="#000000" opacity="1.000000" stroke="none" 
	d="
M282.955627,308.720947 
	C284.432281,308.906281 285.756561,308.636017 286.159546,310.284668 
	C285.036102,312.047699 283.211792,311.223053 281.706757,311.359406 
	C279.839142,311.528656 278.366547,311.970917 278.468445,314.209717 
	C278.557648,316.170074 279.968811,316.489899 281.588440,316.674500 
	C283.558350,316.898987 285.872803,316.055206 287.783295,318.434479 
	C283.923615,320.059875 280.313416,319.277435 276.806488,319.251526 
	C275.077606,319.238739 274.894836,317.680878 274.892639,316.290771 
	C274.889526,314.295746 274.931183,312.300690 274.949371,310.305603 
	C275.033478,301.086212 277.620087,299.442139 287.300720,302.641144 
	C286.213257,304.864807 284.176361,303.999847 282.545624,304.201050 
	C280.943451,304.398712 278.784912,303.974701 278.616852,306.257019 
	C278.407898,309.094452 280.879639,308.459442 282.955627,308.720947 
z"/>
<path fill="#000000" opacity="1.000000" stroke="none" 
	d="
M300.455078,303.117249 
	C304.914093,301.126373 308.859070,300.729095 312.563110,304.720642 
	C306.970703,304.726837 299.439789,302.419708 300.553711,311.640808 
	C301.378113,318.464996 307.447662,316.330414 312.462921,315.502319 
	C311.295135,319.357239 308.529907,319.168091 306.064850,319.327148 
	C302.399933,319.563629 299.608307,318.043152 297.983643,314.709167 
	C295.898102,310.429352 296.990356,306.685577 300.455078,303.117249 
z"/>
<path fill="#000000" opacity="1.000000" stroke="none" 
	d="
M63.970093,342.134857 
	C64.473892,337.068695 67.779175,337.062347 70.875244,338.049042 
	C74.156853,339.094910 75.234261,341.809631 74.105042,345.208893 
	C72.264359,350.749878 69.520638,352.108765 62.749443,350.626251 
	C62.208355,347.852844 63.915737,345.290894 63.970093,342.134857 
M66.577972,347.123779 
	C66.553482,348.144592 66.548920,349.455444 68.040924,348.783722 
	C70.731422,347.572357 71.076569,343.249847 68.775368,340.680908 
	C66.531700,342.056641 67.577126,344.614563 66.577972,347.123779 
z"/>
<path fill="#000000" opacity="1.000000" stroke="none" 
	d="
M368.729492,343.751373 
	C369.576752,347.148773 368.632019,349.573730 365.969055,351.302032 
	C365.556976,351.569427 365.188171,351.903076 364.795563,352.201080 
	C363.382324,353.274078 364.402100,357.228394 361.464020,355.961639 
	C359.077271,354.932678 361.052704,352.128601 361.092346,350.123840 
	C361.114929,348.981018 361.444672,347.841339 361.665375,346.705933 
	C362.701172,341.376984 363.248810,341.118103 368.729492,343.751373 
z"/>
<path fill="#000000" opacity="1.000000" stroke="none" 
	d="
M118.268478,350.610291 
	C116.726097,349.814636 115.847160,352.200958 114.446022,350.958832 
	C113.923218,341.887146 115.207703,339.659882 120.922722,340.090759 
	C121.212860,342.953552 121.520363,345.848511 121.796005,348.746490 
	C122.072388,351.652069 120.659760,351.836365 118.268478,350.610291 
z"/>
<path fill="#000000" opacity="1.000000" stroke="none" 
	d="
M149.678711,355.619446 
	C154.632858,352.606323 154.790024,351.648438 151.631683,343.613678 
	C152.600647,342.162964 153.818085,342.762360 155.125488,343.059753 
	C156.181213,343.299896 157.335144,343.108398 158.399429,343.108398 
	C159.778168,347.650543 155.966553,355.770813 151.939240,357.040955 
	C150.894211,357.370544 149.983917,357.154938 149.678711,355.619446 
z"/>
<path fill="#000000" opacity="1.000000" stroke="none" 
	d="
M379.573242,351.544586 
	C377.482635,351.086700 374.678070,352.443939 374.404724,349.441742 
	C374.148468,346.627838 375.654785,344.253235 378.249878,343.006256 
	C379.549316,342.381836 381.962524,342.201996 382.030579,343.875824 
	C382.135895,346.465942 383.993713,349.977203 379.573242,351.544586 
z"/>
<path fill="#000000" opacity="1.000000" stroke="none" 
	d="
M304.765503,351.453217 
	C300.051331,349.365356 303.992340,345.894104 301.964203,343.079620 
	C305.204376,342.853729 307.344849,345.116333 309.453369,342.642365 
	C310.197266,352.899872 309.529144,352.110687 304.765503,351.453217 
z"/>
<path fill="#000000" opacity="1.000000" stroke="none" 
	d="
M231.769470,350.789307 
	C231.325470,350.450317 231.182709,350.343811 231.111694,350.201508 
	C229.712311,347.397766 230.512711,345.046997 232.863998,343.289429 
	C234.100082,342.365448 235.798599,342.319702 237.045639,343.308044 
	C238.901855,344.779236 238.511444,346.895447 237.843201,348.767029 
	C236.840912,351.574127 234.525787,351.551453 231.769470,350.789307 
z"/>
<path fill="#000000" opacity="1.000000" stroke="none" 
	d="
M129.097900,350.893188 
	C126.578598,348.043243 127.878761,345.772766 129.742767,343.746887 
	C130.969849,342.413208 132.732239,342.265869 134.263031,343.172546 
	C136.119720,344.272217 136.091034,346.099518 135.533356,347.959717 
	C134.575256,351.155609 132.314621,351.792542 129.097900,350.893188 
z"/>
<path fill="#000000" opacity="1.000000" stroke="none" 
	d="
M266.458801,350.056580 
	C267.365204,346.982025 265.098480,342.092133 271.111389,342.615723 
	C272.515167,342.737946 273.960358,342.831024 274.113129,344.452728 
	C274.308472,346.526154 274.881714,349.198761 273.183807,350.490814 
	C271.226654,351.980072 271.044739,349.659851 270.679993,348.129639 
	C269.151825,348.638733 269.539062,352.906708 266.458801,350.056580 
z"/>
<path fill="#000000" opacity="1.000000" stroke="none" 
	d="
M418.164276,345.060760 
	C418.238953,345.966187 418.295074,346.467438 418.228607,346.951843 
	C417.880859,349.487244 416.774231,351.331268 413.910980,351.444702 
	C412.278595,351.509369 410.819672,351.010834 410.572296,349.230408 
	C410.264771,347.017059 410.780731,344.786865 412.706390,343.505798 
	C414.656250,342.208618 416.763977,342.073029 418.164276,345.060760 
z"/>
<path fill="#000000" opacity="1.000000" stroke="none" 
	d="
M224.266785,350.223816 
	C222.914047,351.673065 221.145493,351.700226 221.099854,350.118195 
	C220.963043,345.377930 221.430649,340.623962 223.865341,336.278290 
	C226.315277,340.831970 223.317032,345.418274 224.266785,350.223816 
z"/>
<path fill="#000000" opacity="1.000000" stroke="none" 
	d="
M83.480751,350.359985 
	C80.891212,352.048981 79.985588,350.917480 79.921272,348.554352 
	C79.824013,344.980957 80.920517,341.688873 82.471878,337.230927 
	C85.828667,342.029449 82.504562,346.277771 83.480751,350.359985 
z"/>
<path fill="#000000" opacity="1.000000" stroke="none" 
	d="
M254.082336,345.906128 
	C255.647827,343.104950 257.473480,341.867950 260.163971,343.379364 
	C261.903351,346.190399 254.324066,347.404633 259.736633,350.366577 
	C254.390808,352.120361 253.604965,351.477386 254.082336,345.906128 
z"/>
<path fill="#000000" opacity="1.000000" stroke="none" 
	d="
M191.982117,343.035156 
	C192.607788,343.925110 193.000626,344.666718 193.026581,345.420898 
	C193.109528,347.831787 193.618835,350.571808 190.245010,351.298035 
	C188.926559,351.581848 186.961212,351.245911 187.324478,349.726715 
	C187.947479,347.121307 186.644943,342.915527 191.982117,343.035156 
z"/>
<path fill="#000000" opacity="1.000000" stroke="none" 
	d="
M103.063248,343.440613 
	C104.920883,342.408447 106.451843,342.228516 107.932785,343.745209 
	C108.196587,346.284821 102.643578,347.675446 106.892380,350.797302 
	C104.482971,351.792145 102.711205,351.803101 101.552795,349.975220 
	C100.037125,347.583588 101.329445,345.577545 103.063248,343.440613 
z"/>
<path fill="#000000" opacity="1.000000" stroke="none" 
	d="
M341.871460,351.233093 
	C338.549500,351.473816 336.948059,350.001709 337.710510,347.101196 
	C338.535706,343.962067 340.441345,341.856232 344.591644,343.405914 
	C343.462463,346.053009 342.202728,348.449982 341.871460,351.233093 
z"/>
<path fill="#000000" opacity="1.000000" stroke="none" 
	d="
M178.538651,342.815918 
	C180.935883,342.647430 183.300735,342.964661 181.107605,345.486084 
	C179.470810,347.367828 180.129517,349.003357 180.284241,350.799377 
	C178.201904,351.601257 176.268234,351.704681 175.467758,349.573730 
	C174.395264,346.718689 175.650375,344.459320 178.538651,342.815918 
z"/>
<path fill="#000000" opacity="1.000000" stroke="none" 
	d="
M94.640457,350.240662 
	C93.054794,351.424683 91.233055,351.893951 90.428841,350.542450 
	C89.232445,348.531860 90.116882,346.050934 90.841011,344.028259 
	C91.499580,342.188690 93.391136,342.432556 95.267113,343.391876 
	C95.248474,345.539703 95.685875,347.760590 94.640457,350.240662 
z"/>
<path fill="#000000" opacity="1.000000" stroke="none" 
	d="
M319.840820,342.791840 
	C323.302155,345.053009 321.473480,347.974731 320.699738,350.205475 
	C320.034241,352.124023 317.724701,351.674835 315.702728,350.242493 
	C317.215515,347.880280 315.114655,343.918945 319.840820,342.791840 
z"/>
<path fill="#000000" opacity="1.000000" stroke="none" 
	d="
M355.193756,343.238464 
	C355.555450,344.246857 355.754822,345.059784 355.610016,345.805908 
	C355.184723,347.997620 356.185669,351.152191 352.324463,351.228882 
	C350.816498,351.258850 349.448608,350.440552 350.064880,348.890625 
	C351.011292,346.510284 349.397980,341.741241 355.193756,343.238464 
z"/>
<path fill="#000000" opacity="1.000000" stroke="none" 
	d="
M203.275330,348.748505 
	C203.972702,351.804962 201.713852,352.017670 200.525894,351.145233 
	C197.445923,348.883270 199.381348,345.551056 200.053635,342.969757 
	C200.656708,340.654236 202.787262,341.175415 204.547348,343.218597 
	C203.748474,344.737061 201.323029,346.166412 203.275330,348.748505 
z"/>
<path fill="#000000" opacity="1.000000" stroke="none" 
	d="
M389.852966,343.731049 
	C391.968658,342.560181 393.750671,341.969940 395.173004,343.870239 
	C395.142548,346.318573 392.508270,345.116943 391.972137,346.662354 
	C391.086609,348.262177 393.562622,349.096649 392.947662,350.744171 
	C391.342194,351.611359 389.737427,351.715607 388.735779,349.964508 
	C387.536346,347.867615 388.276398,345.845764 389.852966,343.731049 
z"/>
<path fill="#000000" opacity="1.000000" stroke="none" 
	d="
M426.203766,343.037476 
	C428.496765,342.680481 430.031677,343.000702 429.449615,345.479462 
	C428.995605,347.412842 430.342194,350.198364 427.454498,351.025299 
	C425.410919,351.610535 423.014038,351.432526 424.155731,348.211914 
	C424.745728,346.547546 424.086060,344.444885 426.203766,343.037476 
z"/>
<path fill="#000000" opacity="1.000000" stroke="none" 
	d="
M294.486938,345.873047 
	C294.532043,347.629211 294.679108,349.069122 294.823608,350.483765 
	C293.349060,351.708710 291.746490,351.968903 291.092346,350.146759 
	C290.163696,347.560028 290.786102,344.686066 292.075653,342.465515 
	C293.274933,340.400360 294.892731,342.150635 296.146240,343.173767 
	C296.379333,344.503174 294.874146,344.628052 294.486938,345.873047 
z"/>
<path fill="#000000" opacity="1.000000" stroke="none" 
	d="
M402.038879,351.159058 
	C400.857452,350.271454 400.739044,349.238098 400.962646,348.300537 
	C401.410431,346.423004 399.824493,343.799591 402.760254,342.821350 
	C403.664459,342.520081 404.666931,343.425232 404.365326,344.117096 
	C403.351807,346.442169 407.118561,350.106445 402.038879,351.159058 
z"/>
<path fill="#000000" opacity="1.000000" stroke="none" 
	d="
M214.238556,346.538757 
	C213.816345,348.458435 215.433228,350.810852 212.585114,351.336182 
	C211.480377,351.539978 210.581833,350.678528 210.689545,349.582062 
	C210.903519,347.404114 209.964508,344.433899 212.301178,343.360901 
	C214.407516,342.393707 214.158249,344.775726 214.238556,346.538757 
z"/>
</svg>